<?xml version="1.0" encoding="UTF-8" standalone="no"?>
<svg
   xmlns:dc="http://purl.org/dc/elements/1.1/"
   xmlns:cc="http://creativecommons.org/ns#"
   xmlns:rdf="http://www.w3.org/1999/02/22-rdf-syntax-ns#"
   xmlns:svg="http://www.w3.org/2000/svg"
   xmlns="http://www.w3.org/2000/svg"
   xmlns:sodipodi="http://sodipodi.sourceforge.net/DTD/sodipodi-0.dtd"
   xmlns:inkscape="http://www.inkscape.org/namespaces/inkscape"
   aria-hidden="true"
   data-prefix="fas"
   data-icon="database"
   class="svg-inline--fa fa-database fa-w-14"
   role="img"
   viewBox="0 0 448 512"
   id="svg2"
   version="1.1"
   inkscape:version="0.92.1 r15371"
   width="512"
   height="512"
   sodipodi:docname="actions_database.svg">
  <metadata
     id="metadata10">
    <rdf:RDF>
      <cc:Work
         rdf:about="">
        <dc:format>image/svg+xml</dc:format>
        <dc:type
           rdf:resource="http://purl.org/dc/dcmitype/StillImage" />
        <dc:title></dc:title>
      </cc:Work>
    </rdf:RDF>
  </metadata>
  <defs
     id="defs8" />
  <sodipodi:namedview
     pagecolor="#ffffff"
     bordercolor="#666666"
     borderopacity="1"
     objecttolerance="10"
     gridtolerance="10"
     guidetolerance="10"
     inkscape:pageopacity="0"
     inkscape:pageshadow="2"
     inkscape:window-width="1680"
     inkscape:window-height="973"
     id="namedview6"
     showgrid="false"
     inkscape:zoom="0.4609375"
     inkscape:cx="-214.23729"
     inkscape:cy="256"
     inkscape:window-x="0"
     inkscape:window-y="25"
     inkscape:window-maximized="1"
     inkscape:current-layer="svg2"
     units="px" />
  <path
     d="M 448,81.714422 V 125.28558 C 448,163.68318 347.667,195 224,195 100.333,195 0,163.68318 0,125.28558 V 81.714422 C 0,43.316828 100.333,12 224,12 347.667,12 448,43.316828 448,81.714422 Z M 448,179.75 v 98.03558 C 448,316.18318 347.667,347.5 224,347.5 100.333,347.5 0,316.18318 0,277.78558 V 179.75 c 48.125,31.58942 136.208,46.29518 224,46.29518 87.792,0 175.874,-14.70576 224,-46.29518 z m 0,152.5 v 98.03558 C 448,468.68318 347.667,500 224,500 100.333,500 0,468.68318 0,430.28558 V 332.25 c 48.125,31.58942 136.208,46.29518 224,46.29518 87.792,0 175.874,-14.70576 224,-46.29518 z"
     id="path4"
     style="fill:#e04006;fill-opacity:1;stroke-width:0.97628117"
     inkscape:connector-curvature="0" />
</svg>
